<svg width="100" height="32" viewBox="0 0 100 32" fill="none" xmlns="http://www.w3.org/2000/svg"><path d="M97.7828 23.7521C97.7828 25.1121 97.1428 26.1281 95.8628 26.8001C94.5828 27.4721 92.7508 27.8081 90.3668 27.8081C89.1348 27.8081 88.2308 27.6481 87.6548 27.3281C87.0948 27.0241 86.8148 26.5441 86.8148 25.8881C86.8148 25.4241 86.9428 25.1121 87.1988 24.9521C87.4548 24.8081 87.7988 24.7361 88.2308 24.7361C88.5508 24.7361 88.8228 24.7521 89.0468 24.7841C89.2708 24.8321 89.5108 24.8721 89.7668 24.9041C90.0388 24.9521 90.3748 24.9761 90.7748 24.9761C92.0388 24.9761 92.9428 24.8801 93.4868 24.6881C94.0468 24.4961 94.3268 24.1041 94.3268 23.5121C94.3268 23.0161 94.1268 22.6161 93.7268 22.3121C93.3268 22.0081 92.8228 21.8561 92.2148 21.8561C88.5348 21.8561 86.6948 19.8961 86.6948 15.9761C86.6948 13.9761 87.1588 12.4961 88.0868 11.5361C89.0148 10.5761 90.3988 10.0961 92.2388 10.0961C93.4548 10.0961 94.4628 10.3041 95.2628 10.7201C95.6468 9.28006 96.4628 8.56006 97.7108 8.56006C98.3188 8.56006 98.7828 8.72006 99.1028 9.04006C99.4388 9.34406 99.6068 9.79206 99.6068 10.3841C99.6068 10.9281 99.4468 11.3201 99.1268 11.5601C98.8068 11.8001 98.2948 11.9201 97.5908 11.9201C97.2868 11.9201 97.0068 11.9441 96.7508 11.9921C97.4388 12.9521 97.7828 14.2881 97.7828 16.0001C97.7828 17.0721 97.6228 17.9601 97.3028 18.6641C96.9988 19.3681 96.4308 19.9521 95.5988 20.4161C96.3988 20.7041 96.9588 21.1521 97.2788 21.7601C97.6148 22.3521 97.7828 23.0161 97.7828 23.7521ZM90.1508 15.9761C90.1508 17.9761 90.8468 18.9761 92.2388 18.9761C93.6308 18.9761 94.3268 17.9761 94.3268 15.9761C94.3268 14.9361 94.1508 14.1761 93.7988 13.6961C93.4628 13.2161 92.9428 12.9761 92.2388 12.9761C91.5508 12.9761 91.0308 13.2161 90.6788 13.6961C90.3268 14.1761 90.1508 14.9361 90.1508 15.9761Z" fill="#00C0E8"/><path d="M76.0195 22.4802C74.8675 22.4802 74.2915 21.9362 74.2915 20.8482V15.0882C74.2915 13.5522 74.7795 12.3362 75.7555 11.4402C76.7475 10.5442 78.0515 10.0962 79.6675 10.0962C81.2835 10.0962 82.5795 10.5442 83.5555 11.4402C84.5475 12.3362 85.0435 13.5522 85.0435 15.0882V20.8482C85.0435 21.9362 84.4675 22.4802 83.3155 22.4802C82.1635 22.4802 81.5875 21.9362 81.5875 20.8482V15.2802C81.5875 14.5282 81.4195 13.9602 81.0835 13.5762C80.7475 13.1762 80.2755 12.9762 79.6675 12.9762C79.0595 12.9762 78.5875 13.1762 78.2515 13.5762C77.9155 13.9602 77.7475 14.5282 77.7475 15.2802V20.8482C77.7475 21.9362 77.1715 22.4802 76.0195 22.4802Z" fill="#00C0E8"/><path d="M67.0118 22.4802C65.9558 22.4802 65.0278 22.2642 64.2278 21.8322C63.4278 21.4002 62.8038 20.7922 62.3558 20.0082C61.9238 19.2242 61.7078 18.3122 61.7078 17.2722V11.6562C61.7078 10.5682 62.2838 10.0242 63.4358 10.0242C64.5878 10.0242 65.1638 10.5682 65.1638 11.6562V17.2242C65.1638 17.9762 65.3238 18.5602 65.6438 18.9762C65.9638 19.3922 66.4198 19.6002 67.0118 19.6002C67.6038 19.6002 68.0598 19.3922 68.3798 18.9762C68.6998 18.5602 68.8598 17.9762 68.8598 17.2242V11.6562C68.8598 10.5682 69.4358 10.0242 70.5878 10.0242C71.7398 10.0242 72.3158 10.5682 72.3158 11.6562V17.2722C72.3158 18.3122 72.0918 19.2242 71.6438 20.0082C71.2118 20.7922 70.5958 21.4002 69.7958 21.8322C69.0118 22.2642 68.0838 22.4802 67.0118 22.4802Z" fill="#00C0E8"/><path d="M54.3487 22.4802C52.6367 22.4802 51.2847 21.9922 50.2927 21.0162C49.3007 20.0402 48.8047 18.4642 48.8047 16.2882C48.8047 14.0962 49.3007 12.5202 50.2927 11.5602C51.2847 10.5842 52.6367 10.0962 54.3487 10.0962C56.0607 10.0962 57.4127 10.5842 58.4047 11.5602C59.3967 12.5202 59.8927 14.0962 59.8927 16.2882C59.8927 18.4642 59.3967 20.0402 58.4047 21.0162C57.4127 21.9922 56.0607 22.4802 54.3487 22.4802ZM54.3487 19.6002C54.7967 19.6002 55.1727 19.5122 55.4767 19.3362C55.7807 19.1442 56.0127 18.8082 56.1727 18.3282C56.3487 17.8482 56.4367 17.1682 56.4367 16.2882C56.4367 15.4082 56.3487 14.7282 56.1727 14.2482C56.0127 13.7682 55.7807 13.4402 55.4767 13.2642C55.1727 13.0722 54.7967 12.9762 54.3487 12.9762C53.9167 12.9762 53.5407 13.0722 53.2207 13.2642C52.9167 13.4402 52.6767 13.7682 52.5007 14.2482C52.3407 14.7282 52.2607 15.4082 52.2607 16.2882C52.2607 17.1682 52.3407 17.8482 52.5007 18.3282C52.6767 18.8082 52.9167 19.1442 53.2207 19.3362C53.5407 19.5122 53.9167 19.6002 54.3487 19.6002Z" fill="#00C0E8"/><path d="M39.4058 27.8082C37.1818 27.8082 36.0698 27.1682 36.0698 25.8882C36.0698 25.4242 36.1978 25.1122 36.4538 24.9522C36.7098 24.8082 37.0538 24.7362 37.4858 24.7362C37.9338 24.7362 38.3258 24.7682 38.6618 24.8322C38.9978 24.9122 39.3738 24.9522 39.7898 24.9522C40.2538 24.9522 40.5818 24.8962 40.7738 24.7842C40.9658 24.6722 41.0618 24.4642 41.0618 24.1602C41.0618 23.9682 41.0218 23.7202 40.9418 23.4162C40.8618 23.1122 40.7018 22.6642 40.4618 22.0722C40.2378 21.4802 39.9098 20.6642 39.4778 19.6242L36.4778 12.3522C36.3818 12.1122 36.3338 11.8562 36.3338 11.5842C36.3338 11.0402 36.5338 10.6482 36.9338 10.4082C37.3338 10.1522 37.7498 10.0242 38.1818 10.0242C38.5818 10.0242 38.9018 10.1282 39.1418 10.3362C39.3978 10.5282 39.5818 10.7842 39.6938 11.1042L42.6938 18.8802C43.3018 17.6482 43.7018 16.5922 43.8938 15.7122C44.1018 14.8322 44.1898 14.0242 44.1578 13.2882C44.1418 12.8242 44.1098 12.4482 44.0618 12.1602C44.0298 11.8562 44.0058 11.6642 43.9898 11.5842C43.9258 11.0722 44.0778 10.6882 44.4458 10.4322C44.8298 10.1602 45.2778 10.0242 45.7898 10.0242C46.2538 10.0242 46.6058 10.1282 46.8458 10.3362C47.1018 10.5282 47.2858 10.8002 47.3978 11.1522C47.4778 11.4082 47.5258 11.7042 47.5418 12.0402C47.5738 12.3602 47.5898 12.6242 47.5898 12.8322C47.5898 13.6642 47.5098 14.5122 47.3498 15.3762C47.2058 16.2402 46.9898 17.0562 46.7018 17.8242C46.4298 18.5762 46.0858 19.2322 45.6698 19.7922C45.6058 19.8722 45.4858 20.0322 45.3098 20.2722C45.1498 20.5122 44.9498 20.7522 44.7098 20.9922C44.4698 21.2162 44.2218 21.3762 43.9658 21.4722C44.2378 21.7602 44.4298 22.1362 44.5418 22.6002C44.6538 23.0802 44.7098 23.5762 44.7098 24.0882C44.7098 25.1762 44.2858 26.0642 43.4378 26.7522C42.6058 27.4562 41.2618 27.8082 39.4058 27.8082Z" fill="#00C0E8"/><path d="M30.3065 22.4802C28.5945 22.4802 27.2425 21.9922 26.2505 21.0162C25.2585 20.0402 24.7625 18.4642 24.7625 16.2882C24.7625 14.0962 25.2585 12.5202 26.2505 11.5602C27.2425 10.5842 28.5945 10.0962 30.3065 10.0962C32.0185 10.0962 33.3705 10.5842 34.3625 11.5602C35.3545 12.5202 35.8505 14.0962 35.8505 16.2882C35.8505 18.4642 35.3545 20.0402 34.3625 21.0162C33.3705 21.9922 32.0185 22.4802 30.3065 22.4802ZM30.3065 19.6002C30.7545 19.6002 31.1305 19.5122 31.4345 19.3362C31.7385 19.1442 31.9705 18.8082 32.1305 18.3282C32.3065 17.8482 32.3945 17.1682 32.3945 16.2882C32.3945 15.4082 32.3065 14.7282 32.1305 14.2482C31.9705 13.7682 31.7385 13.4402 31.4345 13.2642C31.1305 13.0722 30.7545 12.9762 30.3065 12.9762C29.8745 12.9762 29.4985 13.0722 29.1785 13.2642C28.8745 13.4402 28.6345 13.7682 28.4585 14.2482C28.2985 14.7282 28.2185 15.4082 28.2185 16.2882C28.2185 17.1682 28.2985 17.8482 28.4585 18.3282C28.6345 18.8082 28.8745 19.1442 29.1785 19.3362C29.4985 19.5122 29.8745 19.6002 30.3065 19.6002Z" fill="#00C0E8"/><path d="M15.6486 20.872C15.6486 21.944 15.0886 22.48 13.9686 22.48C13.4246 22.48 12.9926 22.344 12.6726 22.072C12.3526 21.8 12.1926 21.4 12.1926 20.872V5.872C12.1926 4.624 12.7766 4 13.9446 4C15.0966 4 15.6726 4.624 15.6726 5.872V8.44C15.6726 8.888 15.6246 9.32 15.5286 9.736C15.4326 10.152 15.2726 10.584 15.0486 11.032C15.3206 10.696 15.6806 10.456 16.1286 10.312C16.5766 10.168 17.0966 10.096 17.6886 10.096C18.7446 10.096 19.6646 10.304 20.4486 10.72C21.2326 11.136 21.8406 11.72 22.2726 12.472C22.7206 13.208 22.9446 14.088 22.9446 15.112V20.872C22.9446 21.944 22.3846 22.48 21.2646 22.48C20.7206 22.48 20.2886 22.344 19.9686 22.072C19.6486 21.8 19.4886 21.4 19.4886 20.872V15.256C19.4886 14.504 19.3126 13.936 18.9606 13.552C18.6246 13.168 18.1526 12.976 17.5446 12.976C16.9526 12.976 16.4886 13.176 16.1526 13.576C15.8166 13.96 15.6486 14.52 15.6486 15.256V20.872Z" fill="#00C0E8"/><path d="M6.76 22.4802C4.808 22.4802 3.36 21.9202 2.416 20.8002C1.472 19.6642 1 18.1682 1 16.3122C1 14.4562 1.472 12.9602 2.416 11.8242C3.36 10.6722 4.808 10.0962 6.76 10.0962C7.992 10.0962 8.888 10.2242 9.448 10.4802C10.024 10.7362 10.312 11.1922 10.312 11.8482C10.312 12.3122 10.184 12.6482 9.928 12.8562C9.672 13.0642 9.328 13.1682 8.896 13.1682C8.592 13.1682 8.352 13.1442 8.176 13.0962C8 13.0482 7.808 13.0082 7.6 12.9762C7.408 12.9282 7.104 12.9042 6.688 12.9042C6.128 12.9042 5.68 13.0722 5.344 13.4082C5.024 13.7442 4.792 14.1762 4.648 14.7042C4.52 15.2162 4.456 15.7522 4.456 16.3122C4.456 16.8562 4.504 17.3922 4.6 17.9202C4.712 18.4322 4.928 18.8562 5.248 19.1922C5.568 19.5122 6.056 19.6722 6.712 19.6722C7.32 19.6722 7.768 19.6322 8.056 19.5522C8.344 19.4562 8.624 19.4082 8.896 19.4082C9.328 19.4082 9.672 19.4882 9.928 19.6482C10.184 19.7922 10.312 20.0962 10.312 20.5602C10.312 21.2162 10.024 21.7042 9.448 22.0242C8.888 22.3282 7.992 22.4802 6.76 22.4802Z" fill="#00C0E8"/></svg>