<svg width="630" height="544" viewBox="0 0 630 544" fill="none" xmlns="http://www.w3.org/2000/svg">
<path d="M178.068 87.0625V88.9844H169.725V90.5312H175.701V95.5H163.654V96.9531H176.287V98.8984H161.1V93.7188H173.146V92.4062H161.076V90.5312H167.146V88.9844H158.85V87.0625H178.068ZM169.725 77.8516V79.6328H176.217V81.5781H170.006C170.51 83.0781 172.971 84.2031 177.201 84.4141L176.428 86.3594C172.631 86.125 169.771 85.0938 168.435 83.3828C167.1 85.0938 164.252 86.125 160.42 86.3594L159.693 84.4141C163.877 84.2031 166.338 83.0781 166.889 81.5781H160.701V79.6328H167.146V77.8516H169.725ZM186.994 82.9844C186.971 86.875 189.01 90.7656 192.455 92.2422L190.908 94.3281C188.471 93.2031 186.678 90.9531 185.705 88.1875C184.732 91.1758 182.916 93.6133 180.338 94.8203L178.744 92.6406C182.283 91.1172 184.346 87.0625 184.346 82.9844V79.6094H186.994V82.9844ZM196.603 77.8984V99.1094H193.978V77.8984H196.603ZM222.541 80.1719V82.2812H205.244V80.1719H212.627V77.8516H215.205V80.1719H222.541ZM223.643 91.5859V93.7188H215.205V99.1094H212.627V93.7188H204.283V91.5859H223.643ZM213.916 83.2422C218.393 83.2422 221.088 84.5078 221.088 86.8281C221.088 89.1484 218.393 90.4141 213.916 90.4141C209.439 90.4141 206.744 89.1484 206.744 86.8281C206.744 84.5078 209.439 83.2422 213.916 83.2422ZM213.916 85.1875C210.986 85.1875 209.439 85.75 209.463 86.8281C209.439 87.9062 210.986 88.4688 213.916 88.4688C216.846 88.4688 218.393 87.9062 218.393 86.8281C218.393 85.75 216.846 85.1875 213.916 85.1875ZM248.9 87.8828V90.0391H240.486V99.0625H237.861V90.0391H229.588V87.8828H234.603C235.342 85.0469 235.482 82.9258 235.541 81.3438H231.135V79.2578H238.096V80.3359C238.096 81.9297 238.096 84.3906 237.252 87.8828H243.439C244.061 85.0703 244.154 82.9492 244.166 81.3438H239.596V79.2578H246.744V80.5469C246.744 82.1758 246.744 84.5547 246.088 87.8828H248.9ZM267.342 78.8594V80.9453H261.201C261.436 82.9375 264.025 84.8359 268.115 85.3281L267.131 87.3906C263.334 86.9336 260.533 85.2578 259.396 82.9609C258.26 85.2461 255.482 86.9336 251.686 87.3906L250.725 85.3281C254.814 84.8359 257.369 82.9375 257.615 80.9453H251.521V78.8594H267.342ZM269.1 88.5625V90.6719H260.92V94.5391H258.342V90.6719H249.74V88.5625H269.1ZM266.967 96.5547V98.6641H252.084V92.5938H254.686V96.5547H266.967ZM287.564 77.8984V99.0859H284.939V77.8984H287.564ZM283.088 81.1797V83.2656H270.385V81.1797H275.424V78.1562H278.072V81.1797H283.088ZM276.783 84.625C279.877 84.625 282.174 86.6875 282.174 89.6172C282.174 92.5469 279.877 94.5859 276.783 94.5859C273.666 94.5859 271.393 92.5469 271.393 89.6172C271.393 86.6875 273.666 84.625 276.783 84.625ZM276.783 86.7578C275.096 86.7578 273.877 87.8828 273.877 89.6172C273.877 91.3516 275.096 92.4531 276.783 92.4297C278.471 92.4531 279.666 91.3516 279.666 89.6172C279.666 87.8828 278.471 86.7578 276.783 86.7578Z" fill="#37383C" fill-opacity="0.61"/>
<path d="M314.557 87.7656V89.875H295.244V87.7656H314.557ZM304.877 91.2812C309.447 91.2812 312.189 92.7109 312.213 95.1719C312.189 97.6562 309.447 99.0625 304.877 99.0625C300.26 99.0625 297.494 97.6562 297.494 95.1719C297.494 92.7109 300.26 91.2812 304.877 91.2812ZM304.877 93.3203C301.783 93.3203 300.119 93.9531 300.143 95.1719C300.119 96.3906 301.783 97.0234 304.877 97.0234C307.9 97.0234 309.588 96.3906 309.611 95.1719C309.588 93.9531 307.9 93.3203 304.877 93.3203ZM312.822 78.9062V81.0391H306.705C307.092 82.7969 309.635 84.3789 313.643 84.7656L312.729 86.8281C308.885 86.418 306.025 84.9062 304.877 82.75C303.729 84.8945 300.916 86.418 297.072 86.8281L296.182 84.7656C300.107 84.3789 302.662 82.7969 303.072 81.0391H297.002V78.9062H312.822ZM332.014 77.8984V86.1719H335.154V88.3516H332.014V99.0391H329.412V77.8984H332.014ZM326.412 80.1016C326.412 86.3359 323.834 91.7969 316.779 95.2656L315.303 93.25C320.459 90.6836 323.248 87.0742 323.787 82.2578H316.451V80.1016H326.412ZM352.307 77.9219V84.5781H355.26V86.7344H352.307V93.7422H349.705V77.9219H352.307ZM348.182 80.2656V82.3516H335.619V80.2656H340.611V77.8984H343.213V80.2656H348.182ZM341.9 83.2188C344.947 83.2188 347.057 84.8359 347.08 87.2734C347.057 89.6875 344.947 91.2812 341.9 91.2812C338.83 91.2812 336.697 89.6875 336.697 87.2734C336.697 84.8359 338.83 83.2188 341.9 83.2188ZM341.9 85.2344C340.283 85.2344 339.229 85.9844 339.229 87.2734C339.229 88.5391 340.283 89.2891 341.9 89.2656C343.518 89.2891 344.596 88.5391 344.596 87.2734C344.596 85.9844 343.518 85.2344 341.9 85.2344ZM353.15 96.5547V98.6641H338.736V92.5H341.338V96.5547H353.15ZM365.893 79.0703C368.729 79.0703 370.768 81.0625 370.768 83.9453C370.768 86.8047 368.729 88.8203 365.893 88.8203C363.057 88.8203 361.041 86.8047 361.041 83.9453C361.041 81.0625 363.057 79.0703 365.893 79.0703ZM365.893 81.1797C364.416 81.1797 363.361 82.2344 363.385 83.9453C363.361 85.6094 364.416 86.6641 365.893 86.6641C367.346 86.6641 368.4 85.6094 368.4 83.9453C368.4 82.2344 367.346 81.1797 365.893 81.1797ZM379.018 77.9219V89.4297H376.533V84.625H374.424V89.2891H371.986V78.3203H374.424V82.4688H376.533V77.9219H379.018ZM367.299 90.3203V92.4531H376.439V90.3203H379.018V98.8281H364.721V90.3203H367.299ZM367.299 96.7188H376.439V94.5156H367.299V96.7188ZM403.947 77.8984V88.75H401.346V83.3828H397.127V81.2969H401.346V77.8984H403.947ZM403.947 89.6641V95.1484H392.58V96.7656H404.627V98.8281H390.025V93.2031H401.369V91.7031H390.002V89.6641H403.947ZM393.893 80.2891C393.893 82.8906 395.604 85.375 398.885 86.3828L397.502 88.3984C395.205 87.625 393.541 86.1367 392.627 84.2031C391.689 86.3711 389.955 88.0469 387.447 88.8672L386.088 86.7812C389.486 85.75 391.268 83.1484 391.268 80.2891V78.6016H393.893V80.2891ZM423.982 77.8984V99.0859H421.381V77.8984H423.982ZM414.514 84.625C414.514 87.8594 416.482 91.3047 419.904 92.7344L418.475 94.7266C416.037 93.707 414.221 91.5859 413.248 89.0312C412.299 91.7383 410.471 94 407.998 95.0781L406.592 93.0625C409.967 91.5625 411.912 88 411.912 84.625V83.5234H407.248V81.4375H411.912V78.3438H414.49V81.4375H419.061V83.5234H414.514V84.625ZM434.15 83.9219C434.15 87.2031 436.096 90.9297 439.447 92.4766L437.994 94.5391C435.604 93.4141 433.834 91.1406 432.885 88.4922C431.924 91.3984 430.072 93.8828 427.635 95.0547L426.111 93.0156C429.486 91.4219 431.525 87.4375 431.549 83.9219V82.1406H426.932V79.9844H438.58V82.1406H434.15V83.9219ZM443.15 77.8984V86.1484H446.408V88.3281H443.15V99.0859H440.549V77.8984H443.15ZM462.9 79.6562C462.9 82.3281 465.877 85.0234 470.4 85.6094L469.369 87.7188C465.772 87.1797 462.912 85.4102 461.541 83.0078C460.147 85.4102 457.299 87.1797 453.736 87.7188L452.705 85.6094C457.182 85.0234 460.158 82.3281 460.158 79.6562V78.5781H462.9V79.6562ZM471.174 89.5469V91.7031H462.76V99.0859H460.182V91.7031H451.861V89.5469H471.174Z" fill="#171719"/>
<path d="M61.7239 170.641V177.031H55.302V170.641H61.7239ZM56.5051 171.641V176.047H60.5364V171.641H56.5051ZM65.5676 169.375V173.609H67.6614V174.641H65.5676V179.562H64.3489V169.375H65.5676ZM66.2082 181.938V182.969H56.8801V178.594H58.0832V181.938H66.2082ZM84.25 169.375V177.609H83.0156V175.422H79.7656V176.609H73.3906V170.438H79.7656V171.641H83.0156V169.375H84.25ZM74.6094 171.438V175.609H78.5625V171.438H74.6094ZM79.6406 178.016C82.5312 178.016 84.2969 178.969 84.2969 180.641C84.2969 182.297 82.5312 183.234 79.6406 183.234C76.75 183.234 74.9844 182.297 74.9844 180.641C74.9844 178.969 76.75 178.016 79.6406 178.016ZM79.6406 178.969C77.5156 178.984 76.1875 179.594 76.2031 180.641C76.1875 181.641 77.5156 182.266 79.6406 182.266C81.7656 182.266 83.0781 181.641 83.0781 180.641C83.0781 179.594 81.7656 178.984 79.6406 178.969ZM79.7656 174.391H83.0156V172.656H79.7656V174.391Z" fill="#66708E"/>
<path d="M137.945 458L137.93 456.969L141.789 452.906C143.133 451.484 143.773 450.719 143.773 449.672C143.773 448.516 142.789 447.75 141.523 447.75C140.18 447.75 139.32 448.609 139.32 449.875H137.992C137.976 447.875 139.523 446.531 141.57 446.531C143.617 446.531 145.086 447.906 145.086 449.672C145.086 450.938 144.492 451.922 142.492 453.984L139.898 456.656V456.75H145.289V458H137.945ZM151.13 458.156C148.614 458.156 147.177 456.047 147.177 452.344C147.177 448.672 148.646 446.531 151.13 446.531C153.614 446.531 155.083 448.672 155.083 452.344C155.083 456.047 153.63 458.156 151.13 458.156ZM151.13 456.906C152.755 456.906 153.708 455.266 153.708 452.344C153.708 449.422 152.755 447.75 151.13 447.75C149.505 447.75 148.536 449.422 148.536 452.344C148.536 455.266 149.489 456.906 151.13 456.906ZM157.049 458L157.034 456.969L160.893 452.906C162.237 451.484 162.878 450.719 162.878 449.672C162.878 448.516 161.893 447.75 160.628 447.75C159.284 447.75 158.424 448.609 158.424 449.875H157.096C157.081 447.875 158.628 446.531 160.674 446.531C162.721 446.531 164.19 447.906 164.19 449.672C164.19 450.938 163.596 451.922 161.596 453.984L159.003 456.656V456.75H164.393V458H157.049ZM170.234 458.156C167.719 458.156 166.281 456.047 166.281 452.344C166.281 448.672 167.75 446.531 170.234 446.531C172.719 446.531 174.187 448.672 174.187 452.344C174.187 456.047 172.734 458.156 170.234 458.156ZM170.234 456.906C171.859 456.906 172.812 455.266 172.812 452.344C172.812 449.422 171.859 447.75 170.234 447.75C168.609 447.75 167.641 449.422 167.641 452.344C167.641 455.266 168.594 456.906 170.234 456.906Z" fill="#66708E"/>
<path d="M226.461 458L226.445 456.969L230.305 452.906C231.648 451.484 232.289 450.719 232.289 449.672C232.289 448.516 231.305 447.75 230.039 447.75C228.695 447.75 227.836 448.609 227.836 449.875H226.508C226.492 447.875 228.039 446.531 230.086 446.531C232.133 446.531 233.601 447.906 233.601 449.672C233.601 450.938 233.008 451.922 231.008 453.984L228.414 456.656V456.75H233.805V458H226.461ZM239.646 458.156C237.13 458.156 235.693 456.047 235.693 452.344C235.693 448.672 237.161 446.531 239.646 446.531C242.13 446.531 243.599 448.672 243.599 452.344C243.599 456.047 242.146 458.156 239.646 458.156ZM239.646 456.906C241.271 456.906 242.224 455.266 242.224 452.344C242.224 449.422 241.271 447.75 239.646 447.75C238.021 447.75 237.052 449.422 237.052 452.344C237.052 455.266 238.005 456.906 239.646 456.906ZM245.565 458L245.549 456.969L249.409 452.906C250.753 451.484 251.393 450.719 251.393 449.672C251.393 448.516 250.409 447.75 249.143 447.75C247.799 447.75 246.94 448.609 246.94 449.875H245.612C245.596 447.875 247.143 446.531 249.19 446.531C251.237 446.531 252.706 447.906 252.706 449.672C252.706 450.938 252.112 451.922 250.112 453.984L247.518 456.656V456.75H252.909V458H245.565ZM259.047 446.688V458H257.625V448.156H257.562L254.812 449.984V448.562L257.625 446.688H259.047Z" fill="#66708E"/>
<path d="M312.086 458L312.07 456.969L315.93 452.906C317.273 451.484 317.914 450.719 317.914 449.672C317.914 448.516 316.93 447.75 315.664 447.75C314.32 447.75 313.461 448.609 313.461 449.875H312.133C312.117 447.875 313.664 446.531 315.711 446.531C317.758 446.531 319.226 447.906 319.226 449.672C319.226 450.938 318.633 451.922 316.633 453.984L314.039 456.656V456.75H319.43V458H312.086ZM325.271 458.156C322.755 458.156 321.318 456.047 321.318 452.344C321.318 448.672 322.786 446.531 325.271 446.531C327.755 446.531 329.224 448.672 329.224 452.344C329.224 456.047 327.771 458.156 325.271 458.156ZM325.271 456.906C326.896 456.906 327.849 455.266 327.849 452.344C327.849 449.422 326.896 447.75 325.271 447.75C323.646 447.75 322.677 449.422 322.677 452.344C322.677 455.266 323.63 456.906 325.271 456.906ZM331.19 458L331.174 456.969L335.034 452.906C336.378 451.484 337.018 450.719 337.018 449.672C337.018 448.516 336.034 447.75 334.768 447.75C333.424 447.75 332.565 448.609 332.565 449.875H331.237C331.221 447.875 332.768 446.531 334.815 446.531C336.862 446.531 338.331 447.906 338.331 449.672C338.331 450.938 337.737 451.922 335.737 453.984L333.143 456.656V456.75H338.534V458H331.19ZM340.672 458L340.656 456.969L344.516 452.906C345.859 451.484 346.5 450.719 346.5 449.672C346.5 448.516 345.516 447.75 344.25 447.75C342.906 447.75 342.047 448.609 342.047 449.875H340.719C340.703 447.875 342.25 446.531 344.297 446.531C346.344 446.531 347.812 447.906 347.812 449.672C347.812 450.938 347.219 451.922 345.219 453.984L342.625 456.656V456.75H348.016V458H340.672Z" fill="#66708E"/>
<path d="M400.601 458L400.586 456.969L404.445 452.906C405.789 451.484 406.43 450.719 406.43 449.672C406.43 448.516 405.445 447.75 404.18 447.75C402.836 447.75 401.976 448.609 401.976 449.875H400.648C400.633 447.875 402.18 446.531 404.226 446.531C406.273 446.531 407.742 447.906 407.742 449.672C407.742 450.938 407.148 451.922 405.148 453.984L402.555 456.656V456.75H407.945V458H400.601ZM413.786 458.156C411.271 458.156 409.833 456.047 409.833 452.344C409.833 448.672 411.302 446.531 413.786 446.531C416.271 446.531 417.739 448.672 417.739 452.344C417.739 456.047 416.286 458.156 413.786 458.156ZM413.786 456.906C415.411 456.906 416.364 455.266 416.364 452.344C416.364 449.422 415.411 447.75 413.786 447.75C412.161 447.75 411.193 449.422 411.193 452.344C411.193 455.266 412.146 456.906 413.786 456.906ZM419.706 458L419.69 456.969L423.549 452.906C424.893 451.484 425.534 450.719 425.534 449.672C425.534 448.516 424.549 447.75 423.284 447.75C421.94 447.75 421.081 448.609 421.081 449.875H419.753C419.737 447.875 421.284 446.531 423.331 446.531C425.378 446.531 426.846 447.906 426.846 449.672C426.846 450.938 426.253 451.922 424.253 453.984L421.659 456.656V456.75H427.049V458H419.706ZM433.094 458.156C430.844 458.156 429.234 456.953 429.156 455.156H430.578C430.656 456.234 431.734 456.906 433.078 456.906C434.562 456.906 435.656 456.094 435.656 454.922C435.656 453.688 434.672 452.812 432.906 452.812H431.984V451.578H432.906C434.281 451.578 435.234 450.812 435.234 449.641C435.234 448.516 434.406 447.75 433.125 447.75C431.922 447.75 430.812 448.422 430.75 449.531H429.391C429.469 447.734 431.125 446.531 433.141 446.531C435.297 446.531 436.609 447.938 436.594 449.562C436.609 450.844 435.859 451.797 434.672 452.125V452.203C436.141 452.438 437.047 453.484 437.031 454.922C437.047 456.781 435.344 458.156 433.094 458.156Z" fill="#66708E"/>
<path d="M489.742 458L489.726 456.969L493.586 452.906C494.93 451.484 495.57 450.719 495.57 449.672C495.57 448.516 494.586 447.75 493.32 447.75C491.976 447.75 491.117 448.609 491.117 449.875H489.789C489.773 447.875 491.32 446.531 493.367 446.531C495.414 446.531 496.883 447.906 496.883 449.672C496.883 450.938 496.289 451.922 494.289 453.984L491.695 456.656V456.75H497.086V458H489.742ZM502.927 458.156C500.411 458.156 498.974 456.047 498.974 452.344C498.974 448.672 500.443 446.531 502.927 446.531C505.411 446.531 506.88 448.672 506.88 452.344C506.88 456.047 505.427 458.156 502.927 458.156ZM502.927 456.906C504.552 456.906 505.505 455.266 505.505 452.344C505.505 449.422 504.552 447.75 502.927 447.75C501.302 447.75 500.333 449.422 500.333 452.344C500.333 455.266 501.286 456.906 502.927 456.906ZM508.846 458L508.831 456.969L512.69 452.906C514.034 451.484 514.674 450.719 514.674 449.672C514.674 448.516 513.69 447.75 512.424 447.75C511.081 447.75 510.221 448.609 510.221 449.875H508.893C508.878 447.875 510.424 446.531 512.471 446.531C514.518 446.531 515.987 447.906 515.987 449.672C515.987 450.938 515.393 451.922 513.393 453.984L510.799 456.656V456.75H516.19V458H508.846ZM517.797 455.688V454.531L522.891 446.688H524.625V454.453H526.203V455.688H524.625V458H523.281V455.688H517.797ZM519.312 454.453H523.281V448.469H523.141L519.312 454.359V454.453Z" fill="#66708E"/>
<path d="M57.552 205.688V204.531L62.6457 196.688H64.3801V204.453H65.9582V205.688H64.3801V208H63.0364V205.688H57.552ZM59.0676 204.453H63.0364V198.469H62.8957L59.0676 204.359V204.453ZM71.6119 208.156C69.0963 208.156 67.6588 206.047 67.6588 202.344C67.6588 198.672 69.1276 196.531 71.6119 196.531C74.0963 196.531 75.5651 198.672 75.5651 202.344C75.5651 206.047 74.1119 208.156 71.6119 208.156ZM71.6119 206.906C73.2369 206.906 74.1901 205.266 74.1901 202.344C74.1901 199.422 73.2369 197.75 71.6119 197.75C69.9869 197.75 69.0182 199.422 69.0182 202.344C69.0182 205.266 69.9713 206.906 71.6119 206.906ZM81.2344 208.156C78.7188 208.156 77.2812 206.047 77.2812 202.344C77.2812 198.672 78.75 196.531 81.2344 196.531C83.7188 196.531 85.1875 198.672 85.1875 202.344C85.1875 206.047 83.7344 208.156 81.2344 208.156ZM81.2344 206.906C82.8594 206.906 83.8125 205.266 83.8125 202.344C83.8125 199.422 82.8594 197.75 81.2344 197.75C79.6094 197.75 78.6406 199.422 78.6406 202.344C78.6406 205.266 79.5938 206.906 81.2344 206.906Z" fill="#66708E"/>
<rect width="460" height="1" transform="translate(101 201.5)" fill="#66708E"/>
<path d="M61.8489 264.156C59.5989 264.156 57.9895 262.953 57.9114 261.156H59.3332C59.4114 262.234 60.4895 262.906 61.8332 262.906C63.3176 262.906 64.4114 262.094 64.4114 260.922C64.4114 259.688 63.427 258.812 61.6614 258.812H60.7395V257.578H61.6614C63.0364 257.578 63.9895 256.812 63.9895 255.641C63.9895 254.516 63.1614 253.75 61.8801 253.75C60.677 253.75 59.5676 254.422 59.5051 255.531H58.1457C58.2239 253.734 59.8801 252.531 61.8957 252.531C64.052 252.531 65.3645 253.938 65.3489 255.562C65.3645 256.844 64.6145 257.797 63.427 258.125V258.203C64.8957 258.438 65.802 259.484 65.7864 260.922C65.802 262.781 64.0989 264.156 61.8489 264.156ZM71.6119 264.156C69.0963 264.156 67.6588 262.047 67.6588 258.344C67.6588 254.672 69.1276 252.531 71.6119 252.531C74.0963 252.531 75.5651 254.672 75.5651 258.344C75.5651 262.047 74.1119 264.156 71.6119 264.156ZM71.6119 262.906C73.2369 262.906 74.1901 261.266 74.1901 258.344C74.1901 255.422 73.2369 253.75 71.6119 253.75C69.9869 253.75 69.0182 255.422 69.0182 258.344C69.0182 261.266 69.9713 262.906 71.6119 262.906ZM81.2344 264.156C78.7188 264.156 77.2812 262.047 77.2812 258.344C77.2812 254.672 78.75 252.531 81.2344 252.531C83.7188 252.531 85.1875 254.672 85.1875 258.344C85.1875 262.047 83.7344 264.156 81.2344 264.156ZM81.2344 262.906C82.8594 262.906 83.8125 261.266 83.8125 258.344C83.8125 255.422 82.8594 253.75 81.2344 253.75C79.6094 253.75 78.6406 255.422 78.6406 258.344C78.6406 261.266 79.5938 262.906 81.2344 262.906Z" fill="#66708E"/>
<rect width="460" height="1" transform="translate(101 257.5)" fill="#66708E"/>
<path d="M58.427 320L58.4114 318.969L62.2707 314.906C63.6145 313.484 64.2551 312.719 64.2551 311.672C64.2551 310.516 63.2707 309.75 62.0051 309.75C60.6614 309.75 59.802 310.609 59.802 311.875H58.4739C58.4582 309.875 60.0051 308.531 62.052 308.531C64.0989 308.531 65.5676 309.906 65.5676 311.672C65.5676 312.938 64.9739 313.922 62.9739 315.984L60.3801 318.656V318.75H65.7707V320H58.427ZM71.6119 320.156C69.0963 320.156 67.6588 318.047 67.6588 314.344C67.6588 310.672 69.1276 308.531 71.6119 308.531C74.0963 308.531 75.5651 310.672 75.5651 314.344C75.5651 318.047 74.1119 320.156 71.6119 320.156ZM71.6119 318.906C73.2369 318.906 74.1901 317.266 74.1901 314.344C74.1901 311.422 73.2369 309.75 71.6119 309.75C69.9869 309.75 69.0182 311.422 69.0182 314.344C69.0182 317.266 69.9713 318.906 71.6119 318.906ZM81.2344 320.156C78.7188 320.156 77.2812 318.047 77.2812 314.344C77.2812 310.672 78.75 308.531 81.2344 308.531C83.7188 308.531 85.1875 310.672 85.1875 314.344C85.1875 318.047 83.7344 320.156 81.2344 320.156ZM81.2344 318.906C82.8594 318.906 83.8125 317.266 83.8125 314.344C83.8125 311.422 82.8594 309.75 81.2344 309.75C79.6094 309.75 78.6406 311.422 78.6406 314.344C78.6406 317.266 79.5938 318.906 81.2344 318.906Z" fill="#66708E"/>
<rect width="460" height="1" transform="translate(101 313.5)" fill="#66708E"/>
<path d="M64.802 364.688V376H63.3801V366.156H63.3176L60.5676 367.984V366.562L63.3801 364.688H64.802ZM71.6119 376.156C69.0963 376.156 67.6588 374.047 67.6588 370.344C67.6588 366.672 69.1276 364.531 71.6119 364.531C74.0963 364.531 75.5651 366.672 75.5651 370.344C75.5651 374.047 74.1119 376.156 71.6119 376.156ZM71.6119 374.906C73.2369 374.906 74.1901 373.266 74.1901 370.344C74.1901 367.422 73.2369 365.75 71.6119 365.75C69.9869 365.75 69.0182 367.422 69.0182 370.344C69.0182 373.266 69.9713 374.906 71.6119 374.906ZM81.2344 376.156C78.7188 376.156 77.2812 374.047 77.2812 370.344C77.2812 366.672 78.75 364.531 81.2344 364.531C83.7188 364.531 85.1875 366.672 85.1875 370.344C85.1875 374.047 83.7344 376.156 81.2344 376.156ZM81.2344 374.906C82.8594 374.906 83.8125 373.266 83.8125 370.344C83.8125 367.422 82.8594 365.75 81.2344 365.75C79.6094 365.75 78.6406 367.422 78.6406 370.344C78.6406 373.266 79.5938 374.906 81.2344 374.906Z" fill="#66708E"/>
<rect width="460" height="1" transform="translate(101 369.5)" fill="#66708E"/>
<path d="M81.2344 432.156C78.7188 432.156 77.2812 430.047 77.2812 426.344C77.2812 422.672 78.75 420.531 81.2344 420.531C83.7188 420.531 85.1875 422.672 85.1875 426.344C85.1875 430.047 83.7344 432.156 81.2344 432.156ZM81.2344 430.906C82.8594 430.906 83.8125 429.266 83.8125 426.344C83.8125 423.422 82.8594 421.75 81.2344 421.75C79.6094 421.75 78.6406 423.422 78.6406 426.344C78.6406 429.266 79.5938 430.906 81.2344 430.906Z" fill="#66708E"/>
<rect width="460" height="1" transform="translate(101 425.5)" fill="#66708E"/>
<circle cx="155" cy="407" r="4" fill="#FF652C"/>
<circle cx="243" cy="400" r="4" fill="#FF652C"/>
<circle cx="330" cy="391" r="4" fill="#FF652C"/>
<path d="M155.5 407.5L243 400.5L330.5 391L418 344L507 202" stroke="#FF652C" stroke-width="1.5"/>
<circle cx="418" cy="343" r="4" fill="#FF652C"/>
<circle cx="507" cy="202" r="4" fill="#FF652C"/>
<circle opacity="0.4" cx="507" cy="202" r="10" fill="#FF652C"/>
<path d="M263.443 495.356H262.447L262.535 493.086L260.601 494.302L260.103 493.438L262.124 492.383L260.103 491.313L260.601 490.449L262.535 491.665L262.447 489.395H263.443L263.355 491.665L265.289 490.449L265.787 491.313L263.78 492.383L265.787 493.438L265.289 494.302L263.355 493.086L263.443 495.356ZM279.012 493.965V494.858H273.636V496.074H277.488V498.887H269.754V500.161H277.884V501.04H268.611V498.066H276.36V496.938H268.582V496.074H272.508V494.858H267.161V493.965H279.012ZM273.636 488.091V489.307H277.81V490.215H273.724C273.936 491.511 275.972 492.332 278.367 492.485L278.016 493.364C275.84 493.181 273.877 492.507 273.079 491.27C272.281 492.507 270.318 493.181 268.128 493.364L267.791 492.485C270.171 492.332 272.207 491.511 272.434 490.215H268.377V489.307H272.508V488.091H273.636ZM291.05 488.164V501.216H289.893V494.36H287.036V493.408H289.893V488.164H291.05ZM284.751 492.412C284.751 494.565 286.216 496.675 288.15 497.539L287.491 498.433C286.011 497.751 284.781 496.331 284.209 494.609C283.638 496.426 282.422 497.949 280.943 498.667L280.284 497.773C282.188 496.88 283.623 494.653 283.623 492.412V491.372H280.635V490.435H283.623V488.413H284.766V490.435H287.71V491.372H284.751V492.412ZM294.739 498.594C294.226 498.594 293.787 498.169 293.802 497.642C293.787 497.129 294.226 496.704 294.739 496.704C295.252 496.704 295.677 497.129 295.677 497.642C295.677 498.169 295.252 498.594 294.739 498.594ZM294.739 492.705C294.226 492.705 293.787 492.28 293.802 491.753C293.787 491.24 294.226 490.815 294.739 490.815C295.252 490.815 295.677 491.24 295.677 491.753C295.677 492.28 295.252 492.705 294.739 492.705ZM305.149 489.014C307.156 489.028 308.606 490.259 308.621 492.075C308.606 493.708 307.434 494.873 305.735 495.078V497.305C306.951 497.246 308.174 497.158 309.309 497.012L309.383 497.876C306.629 498.345 303.538 498.374 301.253 498.359L301.062 497.393C302.11 497.385 303.325 497.378 304.578 497.334V495.078C302.849 494.88 301.663 493.716 301.677 492.075C301.663 490.259 303.113 489.028 305.149 489.014ZM305.149 490.01C303.787 490.01 302.791 490.859 302.805 492.075C302.791 493.291 303.787 494.141 305.149 494.141C306.497 494.141 307.478 493.291 307.493 492.075C307.478 490.859 306.497 490.01 305.149 490.01ZM311.287 488.164V493.54H313.411V494.536H311.287V501.187H310.144V488.164H311.287ZM325.069 488.164V501.216H323.911V488.164H325.069ZM318.14 489.175C320.073 489.189 321.465 490.947 321.465 493.716C321.465 496.484 320.073 498.242 318.14 498.242C316.192 498.242 314.815 496.484 314.815 493.716C314.815 490.947 316.192 489.189 318.14 489.175ZM318.14 490.2C316.836 490.215 315.928 491.592 315.928 493.716C315.928 495.84 316.836 497.217 318.14 497.217C319.444 497.217 320.352 495.84 320.352 493.716C320.352 491.592 319.444 490.215 318.14 490.2ZM337.957 494.434V495.386H328.963V489.38H337.825V490.332H330.105V494.434H337.957ZM339.363 498.447V499.414H327.439V498.447H339.363ZM355.252 488.179V496.001H354.094V494.243H350.637V493.291H354.094V491.533H350.769C349.912 493.628 347.898 495.144 345.115 495.972L344.631 495.063C347.781 494.126 349.736 492.368 349.978 490.112H345.291V489.146H351.223C351.223 489.658 351.165 490.149 351.062 490.61H354.094V488.179H355.252ZM350.989 496.133C353.626 496.133 355.325 497.07 355.325 498.623C355.325 500.19 353.626 501.128 350.989 501.128C348.323 501.128 346.638 500.19 346.638 498.623C346.638 497.07 348.323 496.133 350.989 496.133ZM350.989 497.056C349.026 497.041 347.766 497.642 347.766 498.623C347.766 499.604 349.026 500.19 350.989 500.19C352.922 500.19 354.168 499.604 354.182 498.623C354.168 497.642 352.922 497.041 350.989 497.056ZM368.696 488.164V501.187H367.598V488.164H368.696ZM366.06 488.486V500.513H364.976V493.804H362.778V492.866H364.976V488.486H366.06ZM361.387 491.885C361.387 494.141 362.397 496.382 364.199 497.422L363.496 498.271C362.214 497.502 361.306 496.096 360.859 494.434C360.383 496.228 359.438 497.759 358.135 498.579L357.402 497.715C359.219 496.631 360.273 494.258 360.273 491.885V490.654H357.769V489.702H363.774V490.654H361.387V491.885Z" fill="#66708E" fill-opacity="0.9"/>
<rect x="335" y="241" width="102" height="34" rx="17" fill="white"/>
<path d="M353.382 258.093V260.363C354.583 260.297 355.799 260.195 356.941 260.026L357.044 261.052C354.07 261.594 350.891 261.623 348.548 261.623L348.372 260.48C349.426 260.473 350.672 260.466 351.99 260.422V258.093H353.382ZM356.326 252.79V253.918H353.382C353.455 255.456 354.7 256.789 356.663 257.316L356.018 258.4C354.451 257.954 353.279 257.001 352.693 255.749C352.114 257.067 350.965 258.063 349.383 258.518L348.723 257.463C350.679 256.906 351.909 255.529 351.975 253.918H349.075V252.79H351.99V251.223H353.382V252.79H356.326ZM359.153 251.12V264.274H357.761V251.12H359.153ZM372.671 251.12V264.245H371.338V257.463H369.639V263.571H368.364V251.384H369.639V256.32H371.338V251.12H372.671ZM366.768 252.702V253.83H363.237V259.909C364.849 259.895 366.065 259.821 367.471 259.558L367.573 260.7C365.991 261.022 364.644 261.081 362.725 261.096H361.846V252.702H366.768ZM382.378 263.146C380.371 263.146 378.862 261.916 378.789 260.231H380.357C380.444 261.14 381.309 261.799 382.378 261.799C383.667 261.799 384.59 260.861 384.59 259.602C384.59 258.312 383.638 257.375 382.305 257.36C381.455 257.36 380.811 257.639 380.444 258.298H378.921L379.609 252.395H385.615V253.771H380.942L380.591 256.745H380.693C381.133 256.32 381.88 256.027 382.686 256.027C384.678 256.027 386.157 257.507 386.157 259.558C386.157 261.652 384.59 263.146 382.378 263.146ZM391.78 263.146C389.583 263.146 388.015 261.96 387.957 260.231H389.597C389.656 261.169 390.579 261.755 391.765 261.755C393.04 261.755 393.977 261.052 393.977 260.026C393.977 258.986 393.098 258.225 391.589 258.225H390.681V256.906H391.589C392.791 256.906 393.64 256.232 393.64 255.222C393.64 254.255 392.922 253.596 391.794 253.596C390.725 253.596 389.788 254.182 389.744 255.148H388.191C388.235 253.42 389.832 252.248 391.809 252.248C393.889 252.248 395.208 253.566 395.193 255.134C395.208 256.335 394.46 257.214 393.318 257.492V257.565C394.768 257.771 395.603 258.737 395.603 260.085C395.603 261.857 393.977 263.146 391.78 263.146ZM399.951 257.434C398.501 257.448 397.71 256.364 397.725 254.797C397.71 253.244 398.53 252.175 399.951 252.175C401.401 252.175 402.178 253.244 402.178 254.797C402.178 256.379 401.372 257.448 399.951 257.434ZM399.951 256.408C400.64 256.408 400.962 255.764 400.962 254.797C400.962 253.845 400.654 253.2 399.951 253.2C399.277 253.215 398.926 253.845 398.926 254.797C398.926 255.764 399.263 256.408 399.951 256.408ZM406.646 263.22C405.195 263.22 404.404 262.15 404.419 260.583C404.404 259.016 405.239 257.946 406.646 257.946C408.096 257.946 408.872 259.016 408.872 260.583C408.872 262.15 408.066 263.22 406.646 263.22ZM406.646 262.18C407.334 262.18 407.656 261.535 407.656 260.583C407.656 259.616 407.349 258.972 406.646 258.972C405.972 258.986 405.62 259.631 405.62 260.583C405.62 261.535 405.972 262.18 406.646 262.18ZM398.926 263L406.206 252.395H407.539L400.259 263H398.926Z" fill="#FF652C"/>
<path d="M419.567 253.75C419.759 253.417 420.241 253.417 420.433 253.75L423.897 259.75C424.09 260.083 423.849 260.5 423.464 260.5H416.536C416.151 260.5 415.91 260.083 416.103 259.75L419.567 253.75Z" fill="#FF652C"/>
</svg>
